<mxfile host="app.diagrams.net" modified="2024-05-02T23:37:15.390Z" agent="Mozilla/5.0 (Windows NT 10.0; Win64; x64) AppleWebKit/537.36 (KHTML, like Gecko) Chrome/124.0.0.0 Safari/537.36" version="24.3.0" etag="AxXbxjpv7Qy44TWq2Jaq" type="device">
  <diagram id="nZUYdbw0Q1mOHQLaRknF" name="Página-1">
    <mxGraphModel dx="1674" dy="772" grid="1" gridSize="10" guides="1" tooltips="1" connect="1" arrows="1" fold="1" page="1" pageScale="1" pageWidth="827" pageHeight="1169" math="0" shadow="0">
      <root>
        <mxCell id="0" />
        <mxCell id="1" parent="0" />
        <mxCell id="_66OwWnOABUd4qTZSKk8-1" value="&lt;&lt;Interface&gt;&gt;&#xa;Usuario" style="swimlane;fontStyle=2;align=center;verticalAlign=top;childLayout=stackLayout;horizontal=1;startSize=40;horizontalStack=0;resizeParent=1;resizeLast=0;collapsible=1;marginBottom=0;rounded=0;shadow=0;strokeWidth=1;" vertex="1" parent="1">
          <mxGeometry x="240" y="40" width="200" height="92" as="geometry">
            <mxRectangle x="230" y="140" width="160" height="26" as="alternateBounds" />
          </mxGeometry>
        </mxCell>
        <mxCell id="_66OwWnOABUd4qTZSKk8-2" value="+ Cadastrar o Usuário" style="text;align=left;verticalAlign=top;spacingLeft=4;spacingRight=4;overflow=hidden;rotatable=0;points=[[0,0.5],[1,0.5]];portConstraint=eastwest;fontStyle=1" vertex="1" parent="_66OwWnOABUd4qTZSKk8-1">
          <mxGeometry y="40" width="200" height="26" as="geometry" />
        </mxCell>
        <mxCell id="_66OwWnOABUd4qTZSKk8-13" value="Input: usuario: Dados Usuario" style="text;align=left;verticalAlign=top;spacingLeft=4;spacingRight=4;overflow=hidden;rotatable=0;points=[[0,0.5],[1,0.5]];portConstraint=eastwest;rounded=0;shadow=0;html=0;" vertex="1" parent="_66OwWnOABUd4qTZSKk8-1">
          <mxGeometry y="66" width="200" height="26" as="geometry" />
        </mxCell>
        <mxCell id="_66OwWnOABUd4qTZSKk8-4" value="&lt;&lt;Middleware&gt;&gt;&#xa;" style="swimlane;fontStyle=2;align=center;verticalAlign=top;childLayout=stackLayout;horizontal=1;startSize=30;horizontalStack=0;resizeParent=1;resizeLast=0;collapsible=1;marginBottom=0;rounded=0;shadow=0;strokeWidth=1;" vertex="1" parent="1">
          <mxGeometry x="240" y="160" width="200" height="82" as="geometry">
            <mxRectangle x="230" y="140" width="160" height="26" as="alternateBounds" />
          </mxGeometry>
        </mxCell>
        <mxCell id="_66OwWnOABUd4qTZSKk8-21" value="&lt;&lt;Interface Serviço&gt;&gt; Usuário" style="text;align=left;verticalAlign=top;spacingLeft=4;spacingRight=4;overflow=hidden;rotatable=0;points=[[0,0.5],[1,0.5]];portConstraint=eastwest;fontStyle=1" vertex="1" parent="_66OwWnOABUd4qTZSKk8-4">
          <mxGeometry y="30" width="200" height="26" as="geometry" />
        </mxCell>
        <mxCell id="_66OwWnOABUd4qTZSKk8-23" value="+ Cadastrar o Usuário( )" style="text;align=left;verticalAlign=top;spacingLeft=4;spacingRight=4;overflow=hidden;rotatable=0;points=[[0,0.5],[1,0.5]];portConstraint=eastwest;rounded=0;shadow=0;html=0;" vertex="1" parent="_66OwWnOABUd4qTZSKk8-4">
          <mxGeometry y="56" width="200" height="26" as="geometry" />
        </mxCell>
        <mxCell id="_66OwWnOABUd4qTZSKk8-7" value="" style="endArrow=classic;html=1;rounded=0;exitX=0.5;exitY=0;exitDx=0;exitDy=0;entryX=0.5;entryY=1;entryDx=0;entryDy=0;" edge="1" parent="1" source="_66OwWnOABUd4qTZSKk8-4" target="_66OwWnOABUd4qTZSKk8-1">
          <mxGeometry width="50" height="50" relative="1" as="geometry">
            <mxPoint x="330" y="230" as="sourcePoint" />
            <mxPoint x="370" y="120" as="targetPoint" />
          </mxGeometry>
        </mxCell>
        <mxCell id="_66OwWnOABUd4qTZSKk8-8" value="&lt;&lt;Classe&gt;&gt;&#xa;Usuário" style="swimlane;fontStyle=2;align=center;verticalAlign=top;childLayout=stackLayout;horizontal=1;startSize=40;horizontalStack=0;resizeParent=1;resizeLast=0;collapsible=1;marginBottom=0;rounded=0;shadow=0;strokeWidth=1;" vertex="1" parent="1">
          <mxGeometry x="240" y="400" width="200" height="80" as="geometry">
            <mxRectangle x="230" y="140" width="160" height="26" as="alternateBounds" />
          </mxGeometry>
        </mxCell>
        <mxCell id="_66OwWnOABUd4qTZSKk8-9" value="+ Criar Usuário" style="text;align=left;verticalAlign=top;spacingLeft=4;spacingRight=4;overflow=hidden;rotatable=0;points=[[0,0.5],[1,0.5]];portConstraint=eastwest;fontStyle=1" vertex="1" parent="_66OwWnOABUd4qTZSKk8-8">
          <mxGeometry y="40" width="200" height="26" as="geometry" />
        </mxCell>
        <mxCell id="_66OwWnOABUd4qTZSKk8-10" value="" style="endArrow=classic;html=1;rounded=0;exitX=0.5;exitY=1;exitDx=0;exitDy=0;entryX=0.5;entryY=0;entryDx=0;entryDy=0;" edge="1" parent="1" source="_66OwWnOABUd4qTZSKk8-4" target="_66OwWnOABUd4qTZSKk8-18">
          <mxGeometry width="50" height="50" relative="1" as="geometry">
            <mxPoint x="350" y="170" as="sourcePoint" />
            <mxPoint x="350" y="130" as="targetPoint" />
          </mxGeometry>
        </mxCell>
        <mxCell id="_66OwWnOABUd4qTZSKk8-11" value="Banco de&lt;div&gt;dados&lt;/div&gt;" style="shape=cylinder3;whiteSpace=wrap;html=1;boundedLbl=1;backgroundOutline=1;size=11.793103448275986;" vertex="1" parent="1">
          <mxGeometry x="310" y="520" width="60" height="60" as="geometry" />
        </mxCell>
        <mxCell id="_66OwWnOABUd4qTZSKk8-12" value="" style="endArrow=classic;html=1;rounded=0;exitX=0.5;exitY=1;exitDx=0;exitDy=0;entryX=0.5;entryY=0;entryDx=0;entryDy=0;entryPerimeter=0;" edge="1" parent="1" source="_66OwWnOABUd4qTZSKk8-8" target="_66OwWnOABUd4qTZSKk8-11">
          <mxGeometry width="50" height="50" relative="1" as="geometry">
            <mxPoint x="344" y="330" as="sourcePoint" />
            <mxPoint x="344" y="390" as="targetPoint" />
          </mxGeometry>
        </mxCell>
        <mxCell id="_66OwWnOABUd4qTZSKk8-14" value="&lt;&lt;Mensagem&gt;&gt;&#xa;Dados Usuario" style="swimlane;fontStyle=2;align=center;verticalAlign=top;childLayout=stackLayout;horizontal=1;startSize=40;horizontalStack=0;resizeParent=1;resizeLast=0;collapsible=1;marginBottom=0;rounded=0;shadow=0;strokeWidth=1;" vertex="1" parent="1">
          <mxGeometry x="40" y="40" width="160" height="118" as="geometry">
            <mxRectangle x="230" y="140" width="160" height="26" as="alternateBounds" />
          </mxGeometry>
        </mxCell>
        <mxCell id="_66OwWnOABUd4qTZSKk8-15" value="Nome: string" style="text;align=left;verticalAlign=top;spacingLeft=4;spacingRight=4;overflow=hidden;rotatable=0;points=[[0,0.5],[1,0.5]];portConstraint=eastwest;" vertex="1" parent="_66OwWnOABUd4qTZSKk8-14">
          <mxGeometry y="40" width="160" height="26" as="geometry" />
        </mxCell>
        <mxCell id="_66OwWnOABUd4qTZSKk8-16" value="CPF: string" style="text;align=left;verticalAlign=top;spacingLeft=4;spacingRight=4;overflow=hidden;rotatable=0;points=[[0,0.5],[1,0.5]];portConstraint=eastwest;rounded=0;shadow=0;html=0;" vertex="1" parent="_66OwWnOABUd4qTZSKk8-14">
          <mxGeometry y="66" width="160" height="26" as="geometry" />
        </mxCell>
        <mxCell id="_66OwWnOABUd4qTZSKk8-17" value="Email: string" style="text;align=left;verticalAlign=top;spacingLeft=4;spacingRight=4;overflow=hidden;rotatable=0;points=[[0,0.5],[1,0.5]];portConstraint=eastwest;rounded=0;shadow=0;html=0;" vertex="1" parent="_66OwWnOABUd4qTZSKk8-14">
          <mxGeometry y="92" width="160" height="26" as="geometry" />
        </mxCell>
        <mxCell id="_66OwWnOABUd4qTZSKk8-18" value="&lt;&lt;Componente de Serviço&gt;&gt;&#xa;Cadastrar Usuário" style="swimlane;fontStyle=2;align=center;verticalAlign=top;childLayout=stackLayout;horizontal=1;startSize=40;horizontalStack=0;resizeParent=1;resizeLast=0;collapsible=1;marginBottom=0;rounded=0;shadow=0;strokeWidth=1;" vertex="1" parent="1">
          <mxGeometry x="240" y="280" width="200" height="80" as="geometry">
            <mxRectangle x="230" y="140" width="160" height="26" as="alternateBounds" />
          </mxGeometry>
        </mxCell>
        <mxCell id="_66OwWnOABUd4qTZSKk8-24" value="+ Cadastrar o Usuário" style="text;align=left;verticalAlign=top;spacingLeft=4;spacingRight=4;overflow=hidden;rotatable=0;points=[[0,0.5],[1,0.5]];portConstraint=eastwest;fontStyle=1" vertex="1" parent="_66OwWnOABUd4qTZSKk8-18">
          <mxGeometry y="40" width="200" height="26" as="geometry" />
        </mxCell>
        <mxCell id="_66OwWnOABUd4qTZSKk8-19" value="" style="endArrow=classic;html=1;rounded=0;exitX=0.5;exitY=1;exitDx=0;exitDy=0;entryX=0.5;entryY=0;entryDx=0;entryDy=0;" edge="1" parent="1" source="_66OwWnOABUd4qTZSKk8-18" target="_66OwWnOABUd4qTZSKk8-8">
          <mxGeometry width="50" height="50" relative="1" as="geometry">
            <mxPoint x="344" y="470" as="sourcePoint" />
            <mxPoint x="344" y="520" as="targetPoint" />
          </mxGeometry>
        </mxCell>
        <mxCell id="_66OwWnOABUd4qTZSKk8-25" value="&lt;&lt;Interface&gt;&gt;&#xa;Ativo" style="swimlane;fontStyle=2;align=center;verticalAlign=top;childLayout=stackLayout;horizontal=1;startSize=40;horizontalStack=0;resizeParent=1;resizeLast=0;collapsible=1;marginBottom=0;rounded=0;shadow=0;strokeWidth=1;" vertex="1" parent="1">
          <mxGeometry x="1080" y="41" width="200" height="120" as="geometry">
            <mxRectangle x="230" y="140" width="160" height="26" as="alternateBounds" />
          </mxGeometry>
        </mxCell>
        <mxCell id="_66OwWnOABUd4qTZSKk8-26" value="+ Obter Ativo pelo Nome" style="text;align=left;verticalAlign=top;spacingLeft=4;spacingRight=4;overflow=hidden;rotatable=0;points=[[0,0.5],[1,0.5]];portConstraint=eastwest;fontStyle=1" vertex="1" parent="_66OwWnOABUd4qTZSKk8-25">
          <mxGeometry y="40" width="200" height="26" as="geometry" />
        </mxCell>
        <mxCell id="_66OwWnOABUd4qTZSKk8-27" value="Input: nome_ativo: string" style="text;align=left;verticalAlign=top;spacingLeft=4;spacingRight=4;overflow=hidden;rotatable=0;points=[[0,0.5],[1,0.5]];portConstraint=eastwest;rounded=0;shadow=0;html=0;" vertex="1" parent="_66OwWnOABUd4qTZSKk8-25">
          <mxGeometry y="66" width="200" height="26" as="geometry" />
        </mxCell>
        <mxCell id="_66OwWnOABUd4qTZSKk8-28" value="Output: ativo: Dados Ativo" style="text;align=left;verticalAlign=top;spacingLeft=4;spacingRight=4;overflow=hidden;rotatable=0;points=[[0,0.5],[1,0.5]];portConstraint=eastwest;rounded=0;shadow=0;html=0;" vertex="1" parent="_66OwWnOABUd4qTZSKk8-25">
          <mxGeometry y="92" width="200" height="26" as="geometry" />
        </mxCell>
        <mxCell id="_66OwWnOABUd4qTZSKk8-29" value="&lt;&lt;Mensagem&gt;&gt;&#xa;Dados Ativo" style="swimlane;fontStyle=2;align=center;verticalAlign=top;childLayout=stackLayout;horizontal=1;startSize=40;horizontalStack=0;resizeParent=1;resizeLast=0;collapsible=1;marginBottom=0;rounded=0;shadow=0;strokeWidth=1;" vertex="1" parent="1">
          <mxGeometry x="880" y="41" width="160" height="118" as="geometry">
            <mxRectangle x="230" y="140" width="160" height="26" as="alternateBounds" />
          </mxGeometry>
        </mxCell>
        <mxCell id="_66OwWnOABUd4qTZSKk8-30" value="Nome: string" style="text;align=left;verticalAlign=top;spacingLeft=4;spacingRight=4;overflow=hidden;rotatable=0;points=[[0,0.5],[1,0.5]];portConstraint=eastwest;" vertex="1" parent="_66OwWnOABUd4qTZSKk8-29">
          <mxGeometry y="40" width="160" height="26" as="geometry" />
        </mxCell>
        <mxCell id="_66OwWnOABUd4qTZSKk8-31" value="Categoria: string" style="text;align=left;verticalAlign=top;spacingLeft=4;spacingRight=4;overflow=hidden;rotatable=0;points=[[0,0.5],[1,0.5]];portConstraint=eastwest;rounded=0;shadow=0;html=0;" vertex="1" parent="_66OwWnOABUd4qTZSKk8-29">
          <mxGeometry y="66" width="160" height="26" as="geometry" />
        </mxCell>
        <mxCell id="_66OwWnOABUd4qTZSKk8-32" value="Valor: float" style="text;align=left;verticalAlign=top;spacingLeft=4;spacingRight=4;overflow=hidden;rotatable=0;points=[[0,0.5],[1,0.5]];portConstraint=eastwest;rounded=0;shadow=0;html=0;" vertex="1" parent="_66OwWnOABUd4qTZSKk8-29">
          <mxGeometry y="92" width="160" height="26" as="geometry" />
        </mxCell>
        <mxCell id="_66OwWnOABUd4qTZSKk8-33" value="&lt;&lt;Middleware&gt;&gt;&#xa;" style="swimlane;fontStyle=2;align=center;verticalAlign=top;childLayout=stackLayout;horizontal=1;startSize=30;horizontalStack=0;resizeParent=1;resizeLast=0;collapsible=1;marginBottom=0;rounded=0;shadow=0;strokeWidth=1;" vertex="1" parent="1">
          <mxGeometry x="1080" y="200" width="200" height="90" as="geometry">
            <mxRectangle x="230" y="140" width="160" height="26" as="alternateBounds" />
          </mxGeometry>
        </mxCell>
        <mxCell id="_66OwWnOABUd4qTZSKk8-34" value="&lt;&lt;Interface Serviço&gt;&gt; Ativo" style="text;align=left;verticalAlign=top;spacingLeft=4;spacingRight=4;overflow=hidden;rotatable=0;points=[[0,0.5],[1,0.5]];portConstraint=eastwest;fontStyle=1" vertex="1" parent="_66OwWnOABUd4qTZSKk8-33">
          <mxGeometry y="30" width="200" height="26" as="geometry" />
        </mxCell>
        <mxCell id="_66OwWnOABUd4qTZSKk8-35" value="+ Obter Ativo pelo Nome( )" style="text;align=left;verticalAlign=top;spacingLeft=4;spacingRight=4;overflow=hidden;rotatable=0;points=[[0,0.5],[1,0.5]];portConstraint=eastwest;rounded=0;shadow=0;html=0;" vertex="1" parent="_66OwWnOABUd4qTZSKk8-33">
          <mxGeometry y="56" width="200" height="26" as="geometry" />
        </mxCell>
        <mxCell id="_66OwWnOABUd4qTZSKk8-37" value="" style="endArrow=classic;html=1;rounded=0;entryX=0.5;entryY=1;entryDx=0;entryDy=0;exitX=0.5;exitY=0;exitDx=0;exitDy=0;" edge="1" parent="1" source="_66OwWnOABUd4qTZSKk8-33" target="_66OwWnOABUd4qTZSKk8-25">
          <mxGeometry width="50" height="50" relative="1" as="geometry">
            <mxPoint x="1150" y="270" as="sourcePoint" />
            <mxPoint x="1200" y="220" as="targetPoint" />
          </mxGeometry>
        </mxCell>
        <mxCell id="_66OwWnOABUd4qTZSKk8-38" value="&lt;&lt;Classe&gt;&gt;&#xa;Ativo" style="swimlane;fontStyle=2;align=center;verticalAlign=top;childLayout=stackLayout;horizontal=1;startSize=40;horizontalStack=0;resizeParent=1;resizeLast=0;collapsible=1;marginBottom=0;rounded=0;shadow=0;strokeWidth=1;" vertex="1" parent="1">
          <mxGeometry x="1080" y="450" width="200" height="80" as="geometry">
            <mxRectangle x="230" y="140" width="160" height="26" as="alternateBounds" />
          </mxGeometry>
        </mxCell>
        <mxCell id="_66OwWnOABUd4qTZSKk8-39" value="+ Ler Ativo" style="text;align=left;verticalAlign=top;spacingLeft=4;spacingRight=4;overflow=hidden;rotatable=0;points=[[0,0.5],[1,0.5]];portConstraint=eastwest;fontStyle=1" vertex="1" parent="_66OwWnOABUd4qTZSKk8-38">
          <mxGeometry y="40" width="200" height="26" as="geometry" />
        </mxCell>
        <mxCell id="_66OwWnOABUd4qTZSKk8-40" value="Banco de&lt;div&gt;dados&lt;/div&gt;" style="shape=cylinder3;whiteSpace=wrap;html=1;boundedLbl=1;backgroundOutline=1;size=11.793103448275986;" vertex="1" parent="1">
          <mxGeometry x="1150" y="570" width="60" height="60" as="geometry" />
        </mxCell>
        <mxCell id="_66OwWnOABUd4qTZSKk8-41" value="" style="endArrow=classic;html=1;rounded=0;exitX=0.5;exitY=1;exitDx=0;exitDy=0;entryX=0.5;entryY=0;entryDx=0;entryDy=0;entryPerimeter=0;" edge="1" parent="1" source="_66OwWnOABUd4qTZSKk8-38" target="_66OwWnOABUd4qTZSKk8-40">
          <mxGeometry width="50" height="50" relative="1" as="geometry">
            <mxPoint x="1184" y="380" as="sourcePoint" />
            <mxPoint x="1184" y="440" as="targetPoint" />
          </mxGeometry>
        </mxCell>
        <mxCell id="_66OwWnOABUd4qTZSKk8-42" value="&lt;&lt;Componente de Serviço&gt;&gt;&#xa;Obter Ativo pelo Nome" style="swimlane;fontStyle=2;align=center;verticalAlign=top;childLayout=stackLayout;horizontal=1;startSize=40;horizontalStack=0;resizeParent=1;resizeLast=0;collapsible=1;marginBottom=0;rounded=0;shadow=0;strokeWidth=1;" vertex="1" parent="1">
          <mxGeometry x="1080" y="330" width="200" height="80" as="geometry">
            <mxRectangle x="230" y="140" width="160" height="26" as="alternateBounds" />
          </mxGeometry>
        </mxCell>
        <mxCell id="_66OwWnOABUd4qTZSKk8-43" value="+ Obter Ativo pelo Nome" style="text;align=left;verticalAlign=top;spacingLeft=4;spacingRight=4;overflow=hidden;rotatable=0;points=[[0,0.5],[1,0.5]];portConstraint=eastwest;fontStyle=1" vertex="1" parent="_66OwWnOABUd4qTZSKk8-42">
          <mxGeometry y="40" width="200" height="26" as="geometry" />
        </mxCell>
        <mxCell id="_66OwWnOABUd4qTZSKk8-44" value="" style="endArrow=classic;html=1;rounded=0;exitX=0.5;exitY=1;exitDx=0;exitDy=0;entryX=0.5;entryY=0;entryDx=0;entryDy=0;" edge="1" parent="1" source="_66OwWnOABUd4qTZSKk8-42" target="_66OwWnOABUd4qTZSKk8-38">
          <mxGeometry width="50" height="50" relative="1" as="geometry">
            <mxPoint x="1184" y="520" as="sourcePoint" />
            <mxPoint x="1184" y="570" as="targetPoint" />
          </mxGeometry>
        </mxCell>
        <mxCell id="_66OwWnOABUd4qTZSKk8-45" value="" style="endArrow=classic;html=1;rounded=0;entryX=0.5;entryY=0;entryDx=0;entryDy=0;exitX=0.5;exitY=1;exitDx=0;exitDy=0;" edge="1" parent="1" source="_66OwWnOABUd4qTZSKk8-33" target="_66OwWnOABUd4qTZSKk8-42">
          <mxGeometry width="50" height="50" relative="1" as="geometry">
            <mxPoint x="1200" y="290" as="sourcePoint" />
            <mxPoint x="1179.76" y="330" as="targetPoint" />
          </mxGeometry>
        </mxCell>
        <mxCell id="_66OwWnOABUd4qTZSKk8-46" value="&lt;&lt;Mensagem&gt;&gt;&#xa;Dados Investimento" style="swimlane;fontStyle=2;align=center;verticalAlign=top;childLayout=stackLayout;horizontal=1;startSize=40;horizontalStack=0;resizeParent=1;resizeLast=0;collapsible=1;marginBottom=0;rounded=0;shadow=0;strokeWidth=1;" vertex="1" parent="1">
          <mxGeometry x="1680" y="41" width="160" height="200" as="geometry">
            <mxRectangle x="230" y="140" width="160" height="26" as="alternateBounds" />
          </mxGeometry>
        </mxCell>
        <mxCell id="_66OwWnOABUd4qTZSKk8-47" value="ID: string" style="text;align=left;verticalAlign=top;spacingLeft=4;spacingRight=4;overflow=hidden;rotatable=0;points=[[0,0.5],[1,0.5]];portConstraint=eastwest;" vertex="1" parent="_66OwWnOABUd4qTZSKk8-46">
          <mxGeometry y="40" width="160" height="26" as="geometry" />
        </mxCell>
        <mxCell id="_66OwWnOABUd4qTZSKk8-48" value="CPF_Usuario: string" style="text;align=left;verticalAlign=top;spacingLeft=4;spacingRight=4;overflow=hidden;rotatable=0;points=[[0,0.5],[1,0.5]];portConstraint=eastwest;rounded=0;shadow=0;html=0;" vertex="1" parent="_66OwWnOABUd4qTZSKk8-46">
          <mxGeometry y="66" width="160" height="26" as="geometry" />
        </mxCell>
        <mxCell id="_66OwWnOABUd4qTZSKk8-49" value="Nome_Ativo: string" style="text;align=left;verticalAlign=top;spacingLeft=4;spacingRight=4;overflow=hidden;rotatable=0;points=[[0,0.5],[1,0.5]];portConstraint=eastwest;rounded=0;shadow=0;html=0;" vertex="1" parent="_66OwWnOABUd4qTZSKk8-46">
          <mxGeometry y="92" width="160" height="26" as="geometry" />
        </mxCell>
        <mxCell id="_66OwWnOABUd4qTZSKk8-50" value="Tipo: string" style="text;align=left;verticalAlign=top;spacingLeft=4;spacingRight=4;overflow=hidden;rotatable=0;points=[[0,0.5],[1,0.5]];portConstraint=eastwest;rounded=0;shadow=0;html=0;" vertex="1" parent="_66OwWnOABUd4qTZSKk8-46">
          <mxGeometry y="118" width="160" height="26" as="geometry" />
        </mxCell>
        <mxCell id="_66OwWnOABUd4qTZSKk8-51" value="Periodo: int" style="text;align=left;verticalAlign=top;spacingLeft=4;spacingRight=4;overflow=hidden;rotatable=0;points=[[0,0.5],[1,0.5]];portConstraint=eastwest;rounded=0;shadow=0;html=0;" vertex="1" parent="_66OwWnOABUd4qTZSKk8-46">
          <mxGeometry y="144" width="160" height="26" as="geometry" />
        </mxCell>
        <mxCell id="_66OwWnOABUd4qTZSKk8-52" value="Valor_investido: float" style="text;align=left;verticalAlign=top;spacingLeft=4;spacingRight=4;overflow=hidden;rotatable=0;points=[[0,0.5],[1,0.5]];portConstraint=eastwest;rounded=0;shadow=0;html=0;" vertex="1" parent="_66OwWnOABUd4qTZSKk8-46">
          <mxGeometry y="170" width="160" height="26" as="geometry" />
        </mxCell>
        <mxCell id="_66OwWnOABUd4qTZSKk8-53" value="&lt;&lt;Mensagem&gt;&gt;&#xa;Dados Resumo_Investimento" style="swimlane;fontStyle=2;align=center;verticalAlign=top;childLayout=stackLayout;horizontal=1;startSize=40;horizontalStack=0;resizeParent=1;resizeLast=0;collapsible=1;marginBottom=0;rounded=0;shadow=0;strokeWidth=1;" vertex="1" parent="1">
          <mxGeometry x="1680" y="281" width="180" height="118" as="geometry">
            <mxRectangle x="230" y="140" width="160" height="26" as="alternateBounds" />
          </mxGeometry>
        </mxCell>
        <mxCell id="_66OwWnOABUd4qTZSKk8-54" value="ID: string" style="text;align=left;verticalAlign=top;spacingLeft=4;spacingRight=4;overflow=hidden;rotatable=0;points=[[0,0.5],[1,0.5]];portConstraint=eastwest;" vertex="1" parent="_66OwWnOABUd4qTZSKk8-53">
          <mxGeometry y="40" width="180" height="26" as="geometry" />
        </mxCell>
        <mxCell id="_66OwWnOABUd4qTZSKk8-55" value="Tipo: string" style="text;align=left;verticalAlign=top;spacingLeft=4;spacingRight=4;overflow=hidden;rotatable=0;points=[[0,0.5],[1,0.5]];portConstraint=eastwest;rounded=0;shadow=0;html=0;" vertex="1" parent="_66OwWnOABUd4qTZSKk8-53">
          <mxGeometry y="66" width="180" height="26" as="geometry" />
        </mxCell>
        <mxCell id="_66OwWnOABUd4qTZSKk8-56" value="Periodo: int" style="text;align=left;verticalAlign=top;spacingLeft=4;spacingRight=4;overflow=hidden;rotatable=0;points=[[0,0.5],[1,0.5]];portConstraint=eastwest;rounded=0;shadow=0;html=0;" vertex="1" parent="_66OwWnOABUd4qTZSKk8-53">
          <mxGeometry y="92" width="180" height="26" as="geometry" />
        </mxCell>
        <mxCell id="_66OwWnOABUd4qTZSKk8-74" value="&lt;&lt;Interface&gt;&gt;&#xa;Investimento" style="swimlane;fontStyle=2;align=center;verticalAlign=top;childLayout=stackLayout;horizontal=1;startSize=40;horizontalStack=0;resizeParent=1;resizeLast=0;collapsible=1;marginBottom=0;rounded=0;shadow=0;strokeWidth=1;" vertex="1" parent="1">
          <mxGeometry x="1920" y="42" width="280" height="359" as="geometry">
            <mxRectangle x="230" y="140" width="160" height="26" as="alternateBounds" />
          </mxGeometry>
        </mxCell>
        <mxCell id="_66OwWnOABUd4qTZSKk8-75" value="+ Efetuar Investimento" style="text;align=left;verticalAlign=top;spacingLeft=4;spacingRight=4;overflow=hidden;rotatable=0;points=[[0,0.5],[1,0.5]];portConstraint=eastwest;fontStyle=1" vertex="1" parent="_66OwWnOABUd4qTZSKk8-74">
          <mxGeometry y="40" width="280" height="26" as="geometry" />
        </mxCell>
        <mxCell id="_66OwWnOABUd4qTZSKk8-76" value="Input: investimento: Dados Investimento" style="text;align=left;verticalAlign=top;spacingLeft=4;spacingRight=4;overflow=hidden;rotatable=0;points=[[0,0.5],[1,0.5]];portConstraint=eastwest;rounded=0;shadow=0;html=0;" vertex="1" parent="_66OwWnOABUd4qTZSKk8-74">
          <mxGeometry y="66" width="280" height="26" as="geometry" />
        </mxCell>
        <mxCell id="_66OwWnOABUd4qTZSKk8-77" value="" style="endArrow=none;html=1;rounded=0;entryX=0.996;entryY=0.914;entryDx=0;entryDy=0;entryPerimeter=0;exitX=0;exitY=0.922;exitDx=0;exitDy=0;exitPerimeter=0;" edge="1" parent="_66OwWnOABUd4qTZSKk8-74" source="_66OwWnOABUd4qTZSKk8-76" target="_66OwWnOABUd4qTZSKk8-76">
          <mxGeometry width="50" height="50" relative="1" as="geometry">
            <mxPoint y="100" as="sourcePoint" />
            <mxPoint x="250" y="120" as="targetPoint" />
          </mxGeometry>
        </mxCell>
        <mxCell id="_66OwWnOABUd4qTZSKk8-78" value="+ Gerar Lista de Investimentos" style="text;align=left;verticalAlign=top;spacingLeft=4;spacingRight=4;overflow=hidden;rotatable=0;points=[[0,0.5],[1,0.5]];portConstraint=eastwest;fontStyle=1" vertex="1" parent="_66OwWnOABUd4qTZSKk8-74">
          <mxGeometry y="92" width="280" height="26" as="geometry" />
        </mxCell>
        <mxCell id="_66OwWnOABUd4qTZSKk8-79" value="Input: id_usuario: string" style="text;align=left;verticalAlign=top;spacingLeft=4;spacingRight=4;overflow=hidden;rotatable=0;points=[[0,0.5],[1,0.5]];portConstraint=eastwest;rounded=0;shadow=0;html=0;" vertex="1" parent="_66OwWnOABUd4qTZSKk8-74">
          <mxGeometry y="118" width="280" height="26" as="geometry" />
        </mxCell>
        <mxCell id="_66OwWnOABUd4qTZSKk8-80" value="Output: lista: array Dados Resumo_Investimento" style="text;align=left;verticalAlign=top;spacingLeft=4;spacingRight=4;overflow=hidden;rotatable=0;points=[[0,0.5],[1,0.5]];portConstraint=eastwest;rounded=0;shadow=0;html=0;" vertex="1" parent="_66OwWnOABUd4qTZSKk8-74">
          <mxGeometry y="144" width="280" height="26" as="geometry" />
        </mxCell>
        <mxCell id="_66OwWnOABUd4qTZSKk8-81" value="" style="endArrow=none;html=1;rounded=0;exitX=0.003;exitY=0.987;exitDx=0;exitDy=0;exitPerimeter=0;entryX=1;entryY=0.987;entryDx=0;entryDy=0;entryPerimeter=0;" edge="1" parent="_66OwWnOABUd4qTZSKk8-74" source="_66OwWnOABUd4qTZSKk8-80" target="_66OwWnOABUd4qTZSKk8-80">
          <mxGeometry width="50" height="50" relative="1" as="geometry">
            <mxPoint x="100" y="160" as="sourcePoint" />
            <mxPoint x="150" y="110" as="targetPoint" />
          </mxGeometry>
        </mxCell>
        <mxCell id="_66OwWnOABUd4qTZSKk8-82" value="+ Gerar Relatório de Investimento" style="text;align=left;verticalAlign=top;spacingLeft=4;spacingRight=4;overflow=hidden;rotatable=0;points=[[0,0.5],[1,0.5]];portConstraint=eastwest;fontStyle=1" vertex="1" parent="_66OwWnOABUd4qTZSKk8-74">
          <mxGeometry y="170" width="280" height="26" as="geometry" />
        </mxCell>
        <mxCell id="_66OwWnOABUd4qTZSKk8-83" value="Input: id_investimento: string" style="text;align=left;verticalAlign=top;spacingLeft=4;spacingRight=4;overflow=hidden;rotatable=0;points=[[0,0.5],[1,0.5]];portConstraint=eastwest;rounded=0;shadow=0;html=0;" vertex="1" parent="_66OwWnOABUd4qTZSKk8-74">
          <mxGeometry y="196" width="280" height="26" as="geometry" />
        </mxCell>
        <mxCell id="_66OwWnOABUd4qTZSKk8-84" value="Output: informacoes: Dados Investimento" style="text;align=left;verticalAlign=top;spacingLeft=4;spacingRight=4;overflow=hidden;rotatable=0;points=[[0,0.5],[1,0.5]];portConstraint=eastwest;rounded=0;shadow=0;html=0;" vertex="1" parent="_66OwWnOABUd4qTZSKk8-74">
          <mxGeometry y="222" width="280" height="26" as="geometry" />
        </mxCell>
        <mxCell id="_66OwWnOABUd4qTZSKk8-85" value="" style="endArrow=none;html=1;rounded=0;" edge="1" parent="_66OwWnOABUd4qTZSKk8-74">
          <mxGeometry width="50" height="50" relative="1" as="geometry">
            <mxPoint y="250" as="sourcePoint" />
            <mxPoint x="280" y="250" as="targetPoint" />
          </mxGeometry>
        </mxCell>
        <mxCell id="_66OwWnOABUd4qTZSKk8-86" value="+ Gerar Comprovante de Investimento" style="text;align=left;verticalAlign=top;spacingLeft=4;spacingRight=4;overflow=hidden;rotatable=0;points=[[0,0.5],[1,0.5]];portConstraint=eastwest;fontStyle=1" vertex="1" parent="_66OwWnOABUd4qTZSKk8-74">
          <mxGeometry y="248" width="280" height="26" as="geometry" />
        </mxCell>
        <mxCell id="_66OwWnOABUd4qTZSKk8-87" value="Output: dados_investimento: Dados Investimento" style="text;align=left;verticalAlign=top;spacingLeft=4;spacingRight=4;overflow=hidden;rotatable=0;points=[[0,0.5],[1,0.5]];portConstraint=eastwest;rounded=0;shadow=0;html=0;" vertex="1" parent="_66OwWnOABUd4qTZSKk8-74">
          <mxGeometry y="274" width="280" height="26" as="geometry" />
        </mxCell>
        <mxCell id="_66OwWnOABUd4qTZSKk8-88" value="" style="endArrow=none;html=1;rounded=0;exitX=0;exitY=1;exitDx=0;exitDy=0;exitPerimeter=0;entryX=1;entryY=0.997;entryDx=0;entryDy=0;entryPerimeter=0;" edge="1" parent="_66OwWnOABUd4qTZSKk8-74" source="_66OwWnOABUd4qTZSKk8-87" target="_66OwWnOABUd4qTZSKk8-87">
          <mxGeometry width="50" height="50" relative="1" as="geometry">
            <mxPoint y="330" as="sourcePoint" />
            <mxPoint x="280" y="330" as="targetPoint" />
            <Array as="points">
              <mxPoint x="140" y="300" />
            </Array>
          </mxGeometry>
        </mxCell>
        <mxCell id="_66OwWnOABUd4qTZSKk8-89" value="+ Exibir Tipos de Investimento" style="text;align=left;verticalAlign=top;spacingLeft=4;spacingRight=4;overflow=hidden;rotatable=0;points=[[0,0.5],[1,0.5]];portConstraint=eastwest;fontStyle=1" vertex="1" parent="_66OwWnOABUd4qTZSKk8-74">
          <mxGeometry y="300" width="280" height="26" as="geometry" />
        </mxCell>
        <mxCell id="_66OwWnOABUd4qTZSKk8-90" value="Output: lista_tipos: array String" style="text;align=left;verticalAlign=top;spacingLeft=4;spacingRight=4;overflow=hidden;rotatable=0;points=[[0,0.5],[1,0.5]];portConstraint=eastwest;rounded=0;shadow=0;html=0;" vertex="1" parent="_66OwWnOABUd4qTZSKk8-74">
          <mxGeometry y="326" width="280" height="26" as="geometry" />
        </mxCell>
        <mxCell id="_66OwWnOABUd4qTZSKk8-91" value="&lt;&lt;Middleware&gt;&gt;&#xa;" style="swimlane;fontStyle=2;align=center;verticalAlign=top;childLayout=stackLayout;horizontal=1;startSize=30;horizontalStack=0;resizeParent=1;resizeLast=0;collapsible=1;marginBottom=0;rounded=0;shadow=0;strokeWidth=1;" vertex="1" parent="1">
          <mxGeometry x="1940" y="441" width="240" height="199" as="geometry">
            <mxRectangle x="230" y="140" width="160" height="26" as="alternateBounds" />
          </mxGeometry>
        </mxCell>
        <mxCell id="_66OwWnOABUd4qTZSKk8-92" value="&lt;&lt;Interface Serviço&gt;&gt; Investimento" style="text;align=left;verticalAlign=top;spacingLeft=4;spacingRight=4;overflow=hidden;rotatable=0;points=[[0,0.5],[1,0.5]];portConstraint=eastwest;fontStyle=1" vertex="1" parent="_66OwWnOABUd4qTZSKk8-91">
          <mxGeometry y="30" width="240" height="26" as="geometry" />
        </mxCell>
        <mxCell id="_66OwWnOABUd4qTZSKk8-93" value="+ Efetuar Investimento( )" style="text;align=left;verticalAlign=top;spacingLeft=4;spacingRight=4;overflow=hidden;rotatable=0;points=[[0,0.5],[1,0.5]];portConstraint=eastwest;rounded=0;shadow=0;html=0;" vertex="1" parent="_66OwWnOABUd4qTZSKk8-91">
          <mxGeometry y="56" width="240" height="26" as="geometry" />
        </mxCell>
        <mxCell id="_66OwWnOABUd4qTZSKk8-95" value="+ Gerar Lista de Investimentos( )" style="text;align=left;verticalAlign=top;spacingLeft=4;spacingRight=4;overflow=hidden;rotatable=0;points=[[0,0.5],[1,0.5]];portConstraint=eastwest;rounded=0;shadow=0;html=0;" vertex="1" parent="_66OwWnOABUd4qTZSKk8-91">
          <mxGeometry y="82" width="240" height="26" as="geometry" />
        </mxCell>
        <mxCell id="_66OwWnOABUd4qTZSKk8-96" value="+ Gerar Relatório de Investimentos( )" style="text;align=left;verticalAlign=top;spacingLeft=4;spacingRight=4;overflow=hidden;rotatable=0;points=[[0,0.5],[1,0.5]];portConstraint=eastwest;rounded=0;shadow=0;html=0;" vertex="1" parent="_66OwWnOABUd4qTZSKk8-91">
          <mxGeometry y="108" width="240" height="26" as="geometry" />
        </mxCell>
        <mxCell id="_66OwWnOABUd4qTZSKk8-97" value="+ Gerar Comprovante de Investimento( )" style="text;align=left;verticalAlign=top;spacingLeft=4;spacingRight=4;overflow=hidden;rotatable=0;points=[[0,0.5],[1,0.5]];portConstraint=eastwest;rounded=0;shadow=0;html=0;" vertex="1" parent="_66OwWnOABUd4qTZSKk8-91">
          <mxGeometry y="134" width="240" height="26" as="geometry" />
        </mxCell>
        <mxCell id="_66OwWnOABUd4qTZSKk8-98" value="+ Exibir Tipos de Investimentos( )" style="text;align=left;verticalAlign=top;spacingLeft=4;spacingRight=4;overflow=hidden;rotatable=0;points=[[0,0.5],[1,0.5]];portConstraint=eastwest;rounded=0;shadow=0;html=0;" vertex="1" parent="_66OwWnOABUd4qTZSKk8-91">
          <mxGeometry y="160" width="240" height="26" as="geometry" />
        </mxCell>
        <mxCell id="_66OwWnOABUd4qTZSKk8-94" value="" style="endArrow=classic;html=1;rounded=0;exitX=0.5;exitY=1;exitDx=0;exitDy=0;" edge="1" parent="1" source="_66OwWnOABUd4qTZSKk8-74" target="_66OwWnOABUd4qTZSKk8-91">
          <mxGeometry width="50" height="50" relative="1" as="geometry">
            <mxPoint x="2080" y="411" as="sourcePoint" />
            <mxPoint x="2280" y="311" as="targetPoint" />
          </mxGeometry>
        </mxCell>
        <mxCell id="_66OwWnOABUd4qTZSKk8-99" value="&lt;&lt;Componente de Serviço&gt;&gt;&#xa;Efetuar Investimento" style="swimlane;fontStyle=2;align=center;verticalAlign=top;childLayout=stackLayout;horizontal=1;startSize=40;horizontalStack=0;resizeParent=1;resizeLast=0;collapsible=1;marginBottom=0;rounded=0;shadow=0;strokeWidth=1;" vertex="1" parent="1">
          <mxGeometry x="2281" y="120" width="239" height="80" as="geometry">
            <mxRectangle x="230" y="140" width="160" height="26" as="alternateBounds" />
          </mxGeometry>
        </mxCell>
        <mxCell id="_66OwWnOABUd4qTZSKk8-100" value="+ Efetuar Investimento" style="text;align=left;verticalAlign=top;spacingLeft=4;spacingRight=4;overflow=hidden;rotatable=0;points=[[0,0.5],[1,0.5]];portConstraint=eastwest;fontStyle=1" vertex="1" parent="_66OwWnOABUd4qTZSKk8-99">
          <mxGeometry y="40" width="239" height="26" as="geometry" />
        </mxCell>
        <mxCell id="_66OwWnOABUd4qTZSKk8-101" value="&lt;&lt;Componente de Serviço&gt;&gt;&#xa;Gerar Comprovante de Investimento" style="swimlane;fontStyle=2;align=center;verticalAlign=top;childLayout=stackLayout;horizontal=1;startSize=40;horizontalStack=0;resizeParent=1;resizeLast=0;collapsible=1;marginBottom=0;rounded=0;shadow=0;strokeWidth=1;" vertex="1" parent="1">
          <mxGeometry x="2281" y="480" width="239" height="80" as="geometry">
            <mxRectangle x="230" y="140" width="160" height="26" as="alternateBounds" />
          </mxGeometry>
        </mxCell>
        <mxCell id="_66OwWnOABUd4qTZSKk8-121" value="+ Gerar Comprovante de Investimento" style="text;align=left;verticalAlign=top;spacingLeft=4;spacingRight=4;overflow=hidden;rotatable=0;points=[[0,0.5],[1,0.5]];portConstraint=eastwest;fontStyle=1" vertex="1" parent="_66OwWnOABUd4qTZSKk8-101">
          <mxGeometry y="40" width="239" height="26" as="geometry" />
        </mxCell>
        <mxCell id="_66OwWnOABUd4qTZSKk8-103" value="&lt;&lt;Componente de Serviço&gt;&gt;&#xa;Gerar Relatório de Investimento" style="swimlane;fontStyle=2;align=center;verticalAlign=top;childLayout=stackLayout;horizontal=1;startSize=40;horizontalStack=0;resizeParent=1;resizeLast=0;collapsible=1;marginBottom=0;rounded=0;shadow=0;strokeWidth=1;" vertex="1" parent="1">
          <mxGeometry x="2281" y="360" width="239" height="80" as="geometry">
            <mxRectangle x="230" y="140" width="160" height="26" as="alternateBounds" />
          </mxGeometry>
        </mxCell>
        <mxCell id="_66OwWnOABUd4qTZSKk8-104" value="+ Gerar Relatório de Investimento" style="text;align=left;verticalAlign=top;spacingLeft=4;spacingRight=4;overflow=hidden;rotatable=0;points=[[0,0.5],[1,0.5]];portConstraint=eastwest;fontStyle=1" vertex="1" parent="_66OwWnOABUd4qTZSKk8-103">
          <mxGeometry y="40" width="239" height="26" as="geometry" />
        </mxCell>
        <mxCell id="_66OwWnOABUd4qTZSKk8-105" value="&lt;&lt;Componente de Serviço&gt;&gt;&#xa;Exibir Tipos de Investimento" style="swimlane;fontStyle=2;align=center;verticalAlign=top;childLayout=stackLayout;horizontal=1;startSize=40;horizontalStack=0;resizeParent=1;resizeLast=0;collapsible=1;marginBottom=0;rounded=0;shadow=0;strokeWidth=1;" vertex="1" parent="1">
          <mxGeometry x="2281" y="600" width="239" height="80" as="geometry">
            <mxRectangle x="230" y="140" width="160" height="26" as="alternateBounds" />
          </mxGeometry>
        </mxCell>
        <mxCell id="_66OwWnOABUd4qTZSKk8-106" value="+ Exibir Tipos de Investimento" style="text;align=left;verticalAlign=top;spacingLeft=4;spacingRight=4;overflow=hidden;rotatable=0;points=[[0,0.5],[1,0.5]];portConstraint=eastwest;fontStyle=1" vertex="1" parent="_66OwWnOABUd4qTZSKk8-105">
          <mxGeometry y="40" width="239" height="26" as="geometry" />
        </mxCell>
        <mxCell id="_66OwWnOABUd4qTZSKk8-107" value="&lt;&lt;Componente de Serviço&gt;&gt;&#xa;Gerar Lista de Investimentos" style="swimlane;fontStyle=2;align=center;verticalAlign=top;childLayout=stackLayout;horizontal=1;startSize=40;horizontalStack=0;resizeParent=1;resizeLast=0;collapsible=1;marginBottom=0;rounded=0;shadow=0;strokeWidth=1;" vertex="1" parent="1">
          <mxGeometry x="2281" y="242" width="239" height="80" as="geometry">
            <mxRectangle x="230" y="140" width="160" height="26" as="alternateBounds" />
          </mxGeometry>
        </mxCell>
        <mxCell id="_66OwWnOABUd4qTZSKk8-108" value="+ Gerar Lista de Investimentos" style="text;align=left;verticalAlign=top;spacingLeft=4;spacingRight=4;overflow=hidden;rotatable=0;points=[[0,0.5],[1,0.5]];portConstraint=eastwest;fontStyle=1" vertex="1" parent="_66OwWnOABUd4qTZSKk8-107">
          <mxGeometry y="40" width="239" height="26" as="geometry" />
        </mxCell>
        <mxCell id="_66OwWnOABUd4qTZSKk8-109" value="" style="endArrow=classic;html=1;rounded=0;exitX=1;exitY=0.5;exitDx=0;exitDy=0;entryX=-0.009;entryY=-0.026;entryDx=0;entryDy=0;entryPerimeter=0;" edge="1" parent="1" source="_66OwWnOABUd4qTZSKk8-95" target="_66OwWnOABUd4qTZSKk8-108">
          <mxGeometry width="50" height="50" relative="1" as="geometry">
            <mxPoint x="2080" y="660" as="sourcePoint" />
            <mxPoint x="2250" y="720" as="targetPoint" />
          </mxGeometry>
        </mxCell>
        <mxCell id="_66OwWnOABUd4qTZSKk8-110" value="" style="endArrow=classic;html=1;rounded=0;exitX=1;exitY=0.5;exitDx=0;exitDy=0;entryX=-0.009;entryY=-0.051;entryDx=0;entryDy=0;entryPerimeter=0;" edge="1" parent="1" source="_66OwWnOABUd4qTZSKk8-96" target="_66OwWnOABUd4qTZSKk8-104">
          <mxGeometry width="50" height="50" relative="1" as="geometry">
            <mxPoint x="2070" y="650" as="sourcePoint" />
            <mxPoint x="2350" y="690" as="targetPoint" />
          </mxGeometry>
        </mxCell>
        <mxCell id="_66OwWnOABUd4qTZSKk8-111" value="" style="endArrow=classic;html=1;rounded=0;exitX=1;exitY=0.5;exitDx=0;exitDy=0;entryX=-0.001;entryY=0.019;entryDx=0;entryDy=0;entryPerimeter=0;" edge="1" parent="1" source="_66OwWnOABUd4qTZSKk8-93" target="_66OwWnOABUd4qTZSKk8-100">
          <mxGeometry width="50" height="50" relative="1" as="geometry">
            <mxPoint x="2080" y="660" as="sourcePoint" />
            <mxPoint x="2260" y="360" as="targetPoint" />
          </mxGeometry>
        </mxCell>
        <mxCell id="_66OwWnOABUd4qTZSKk8-119" value="" style="endArrow=classic;html=1;rounded=0;exitX=1;exitY=0.5;exitDx=0;exitDy=0;entryX=-0.004;entryY=0.077;entryDx=0;entryDy=0;entryPerimeter=0;" edge="1" parent="1" source="_66OwWnOABUd4qTZSKk8-97" target="_66OwWnOABUd4qTZSKk8-121">
          <mxGeometry width="50" height="50" relative="1" as="geometry">
            <mxPoint x="2190" y="572" as="sourcePoint" />
            <mxPoint x="2282.912" y="717.8419999999999" as="targetPoint" />
          </mxGeometry>
        </mxCell>
        <mxCell id="_66OwWnOABUd4qTZSKk8-120" value="" style="endArrow=classic;html=1;rounded=0;exitX=1;exitY=0.5;exitDx=0;exitDy=0;entryX=-0.009;entryY=-0.051;entryDx=0;entryDy=0;entryPerimeter=0;" edge="1" parent="1" source="_66OwWnOABUd4qTZSKk8-98" target="_66OwWnOABUd4qTZSKk8-106">
          <mxGeometry width="50" height="50" relative="1" as="geometry">
            <mxPoint x="2200" y="582" as="sourcePoint" />
            <mxPoint x="2299" y="619" as="targetPoint" />
          </mxGeometry>
        </mxCell>
      </root>
    </mxGraphModel>
  </diagram>
</mxfile>
